<svg width="36" height="37" viewBox="0 0 36 37" fill="none" xmlns="http://www.w3.org/2000/svg">
<rect y="0.348633" width="36" height="36" rx="18" fill="white"/>
<path d="M21.7507 13.3486H19.2507C18.7904 13.3486 18.4173 13.7217 18.4173 14.182V16.682H21.7507C21.8454 16.6799 21.9353 16.724 21.9917 16.8002C22.048 16.8765 22.0638 16.9753 22.034 17.0653L21.4173 18.8986C21.3605 19.0669 21.2032 19.1806 21.0257 19.182H18.4173V25.432C18.4173 25.662 18.2307 25.8486 18.0007 25.8486H15.9173C15.6872 25.8486 15.5007 25.662 15.5007 25.432V19.182H14.2507C14.0205 19.182 13.834 18.9954 13.834 18.7653V17.0986C13.834 16.8685 14.0205 16.682 14.2507 16.682H15.5007V14.182C15.5007 12.341 16.9931 10.8486 18.834 10.8486H21.7507C21.9807 10.8486 22.1673 11.0352 22.1673 11.2653V12.932C22.1673 13.1621 21.9807 13.3486 21.7507 13.3486Z" fill="#002538"/>
</svg>
