<svg width="101" height="35" viewBox="0 0 101 35" fill="none" xmlns="http://www.w3.org/2000/svg">
<g clip-path="url(#clip0_1_18816)">
<path d="M37.5745 14.5787H35.0645V12.9522H41.8658V14.5787H39.355V23.2452H37.5737V14.5787H37.5745Z" fill="#002334"/>
<path d="M49.0395 19.4663C49.0395 21.8129 47.5386 23.4684 45.1547 23.4684C42.7845 23.4684 41.3398 21.7692 41.3398 19.4663C41.3398 17.0908 42.8681 15.4213 45.1829 15.4213C47.5113 15.4205 49.0395 17.0908 49.0395 19.4663ZM43.0938 19.4514C43.0938 21.0062 43.8651 22.0001 45.1554 22.0001C46.4595 22.0001 47.2308 21.0062 47.2308 19.4514C47.2308 17.9544 46.4458 16.8887 45.1554 16.8887C43.8651 16.8895 43.0938 17.9552 43.0938 19.4514Z" fill="#002334"/>
<path d="M52.0516 16.1565C52.0516 16.3149 52.0516 16.4593 52.0371 16.6317C52.4156 15.9553 53.1452 15.4365 54.2531 15.4365C55.3049 15.4365 56.0199 15.8975 56.4546 16.7175C56.9037 16.07 57.6325 15.4365 58.9365 15.4365C60.6335 15.4365 61.5872 16.545 61.5872 18.5461V23.2393H59.8766V19.2084C59.8766 17.6536 59.47 16.9047 58.4601 16.9047C57.3946 16.9047 56.8612 17.7254 56.8612 18.8628V23.2393H55.1506V19.1655C55.1506 17.6255 54.744 16.9055 53.7204 16.9055C52.598 16.9055 52.1352 17.812 52.1352 19.022V23.2401H50.4246V16.8485C50.4246 16.4452 50.4246 16.0855 50.4102 15.6823H52.0508L52.0516 16.1565Z" fill="#002334"/>
<path d="M70.6156 19.4663C70.6156 21.8129 69.1147 23.4684 66.7309 23.4684C64.3606 23.4684 62.916 21.7692 62.916 19.4663C62.916 17.0908 64.4442 15.4213 66.759 15.4213C69.0874 15.4205 70.6156 17.0908 70.6156 19.4663ZM64.6699 19.4514C64.6699 21.0062 65.4412 22.0001 66.7316 22.0001C68.0356 22.0001 68.807 21.0062 68.807 19.4514C68.807 17.9544 68.022 16.8887 66.7316 16.8887C65.4412 16.8887 64.6699 17.9552 64.6699 19.4514Z" fill="#002334"/>
<path d="M73.6153 15.6649V16.1837C73.6153 16.3561 73.6153 16.5293 73.6009 16.6877C73.8676 15.9247 74.5401 15.4925 75.3822 15.4925C75.5645 15.4925 75.6907 15.5073 75.7884 15.5214V17.1916C75.6626 17.148 75.4665 17.1339 75.2978 17.1339C73.9512 17.1339 73.727 18.113 73.727 19.6677V23.2376H72.0164V17.0333C72.0164 16.5582 72.0164 16.126 72.002 15.6649H73.6153Z" fill="#002334"/>
<path d="M78.4195 15.6649V16.1837C78.4195 16.3561 78.4195 16.5293 78.4051 16.6877C78.6718 15.9247 79.3453 15.4925 80.1862 15.4925C80.3688 15.4925 80.4953 15.5073 80.593 15.5214V17.1916C80.4672 17.148 80.2703 17.1339 80.1021 17.1339C78.7559 17.1339 78.5316 18.113 78.5316 19.6677V23.2376H76.821V17.0333C76.821 16.5582 76.821 16.126 76.8066 15.6649H78.4195Z" fill="#002334"/>
<path d="M88.8625 19.4663C88.8625 21.8129 87.3625 23.4684 84.9777 23.4684C82.6088 23.4684 81.1641 21.7692 81.1641 19.4663C81.1641 17.0908 82.6921 15.4213 85.0065 15.4213C87.3338 15.4205 88.8625 17.0908 88.8625 19.4663ZM82.9163 19.4514C82.9163 21.0062 83.6875 22.0001 84.9777 22.0001C86.2822 22.0001 87.0535 21.0062 87.0535 19.4514C87.0535 17.9544 86.2686 16.8887 84.9777 16.8887C83.6883 16.8895 82.9163 17.9552 82.9163 19.4514Z" fill="#002334"/>
<path d="M91.5963 23.2517C90.7683 20.7904 90.0388 18.1559 89.2539 15.6938H91.0062L91.8335 18.645C92.1009 19.5375 92.1986 20.1857 92.4925 21.2655H92.5206C92.7872 20.2287 92.9138 19.5523 93.2085 18.329L93.8395 15.6945H95.4653L96.1948 18.6458C96.4198 19.5523 96.5183 20.1288 96.8259 21.2951H96.8539C97.1486 20.2583 97.2471 19.6677 97.5835 18.4734L98.3547 15.6945H100.024L97.6675 23.2524H95.8865C95.4797 21.9567 94.9463 19.7115 94.6524 18.2573H94.6107C94.2319 19.8261 93.7547 21.8997 93.335 23.2524L91.5963 23.2517Z" fill="#002334"/>
<path d="M39.3594 30.2821V34.7733H37.5781V24.4802H39.3594V28.6695H43.6363V24.4802H45.4176V34.7733H43.6363V30.2821H39.3594Z" fill="#002334"/>
<path d="M48.2817 31.4161C48.3941 32.6541 49.2072 33.5466 50.3988 33.5466C51.2401 33.5466 51.7591 33.1862 52.0821 32.6105H53.8064C53.3572 33.9929 52.1375 35 50.3571 35C48.0567 35 46.5703 33.3297 46.5703 30.9691C46.5703 28.6654 48.0849 26.9522 50.3281 26.9522C52.6702 26.9522 53.9325 28.752 53.9325 30.9542C53.9325 31.2281 53.918 31.3857 53.918 31.4294L48.2817 31.4161ZM52.2227 30.1632C52.1102 29.1272 51.4232 28.3205 50.3152 28.3205C49.2498 28.3205 48.4921 28.954 48.3379 30.1632H52.2227Z" fill="#002334"/>
<path d="M55.0863 29.5732C55.157 28.1191 56.3204 26.9676 58.2415 26.9676C60.0364 26.9676 61.2842 27.7306 61.2842 30.3073V32.4238C61.2842 33.4746 61.3404 34.2088 61.4522 34.7704H59.8814C59.8388 34.5551 59.797 34.2088 59.797 33.7625C59.3905 34.3811 58.5492 34.9148 57.3569 34.9148C55.8287 34.9148 54.7344 34.094 54.7344 32.6688C54.7344 31.0999 56.3751 30.4953 57.9322 30.2644C58.5629 30.1638 59.1382 30.1061 59.6291 30.0631C59.5866 28.7962 59.1663 28.3359 58.1989 28.3359C57.2307 28.3359 56.8105 28.8399 56.7125 29.574L55.0863 29.5732ZM59.658 31.2863L59.2795 31.3301C57.4139 31.5173 56.559 31.8341 56.559 32.6258C56.559 33.317 57.0499 33.6618 57.8349 33.6618C59.069 33.6618 59.6443 32.8848 59.6443 31.6031C59.6443 31.5883 59.6443 31.4447 59.658 31.2863Z" fill="#002334"/>
<path d="M63.0488 24.4802H64.7594V34.7733H63.0488V24.4802Z" fill="#002334"/>
<path d="M68.6597 27.1983H70.0344V28.5081H68.6597V32.6397C68.6597 33.3457 68.9826 33.5758 69.5435 33.5758C69.6832 33.5758 69.7957 33.561 69.8938 33.547V34.8427C69.7395 34.8864 69.5571 34.9005 69.2349 34.9005C67.8465 34.9005 66.9491 34.4395 66.9491 32.9424V28.5081H65.8418V27.1983H66.9491V25.1543H68.6597V27.1983Z" fill="#002334"/>
<path d="M72.9313 26.5679C72.9313 27.1296 72.9169 27.4892 72.9032 28.0649C73.366 27.4314 74.053 26.9712 75.1328 26.9712C76.8299 26.9712 77.7973 28.1804 77.7973 30.0379V34.7741H76.1003V30.8866C76.1003 29.3896 75.7636 28.4394 74.6001 28.4394C73.4359 28.4394 72.9313 29.3319 72.9313 30.5988V34.7733H71.2207V24.4802H72.9313V26.5679Z" fill="#002334"/>
<path d="M15.5604 34.2222C14.968 34.2222 14.3709 34.1268 13.8295 33.9241C12.4208 33.3974 11.6034 32.2838 11.5275 30.7877C11.4405 29.0736 12.0406 27.1059 13.3526 24.8242C12.1318 22.9898 10.9493 20.9788 10.2131 19.0069C4.56836 16.2293 2.08218 12.0771 0.991036 8.84092C-0.408143 4.69376 0.114921 1.20412 0.138023 1.05786L0.303887 0L1.04316 0.742425C1.09115 0.790767 5.92904 5.61591 11.3848 8.41952C11.5293 8.49326 11.7023 8.46666 11.816 8.35139C12.2259 7.93551 12.6306 7.50792 13.169 6.9229C13.6997 6.34532 14.5593 5.53782 15.8886 5.19574C17.0514 4.89641 18.219 5.13935 19.0103 5.84707C19.4031 6.19783 19.7342 6.7184 19.9333 7.29473C20.5991 7.39884 21.102 7.52465 21.2442 7.56121L22.689 7.93676L21.349 8.61599C21.3354 8.62283 19.8018 9.43647 19.0115 11.497C18.9262 11.7202 18.8676 11.9278 18.8303 12.1255C20.919 12.1893 22.8027 12.4713 24.6497 12.7476C26.5097 13.0259 28.2662 13.2886 30.2085 13.3432L31.084 13.368L30.6688 14.1742C30.6161 14.2771 29.3389 16.7182 26.5945 18.7143C24.5762 20.1825 21.4331 21.614 17.1414 21.1418C16.8268 21.6332 16.4667 22.1575 16.0532 22.7177C15.5243 23.4354 15.0557 24.1257 14.6475 24.7889C15.314 25.7637 15.9798 26.6814 16.5757 27.502C17.6722 29.0122 18.5382 30.2052 18.9037 31.0288C19.2272 31.7564 19.12 32.5093 18.6099 33.0944C17.9814 33.8144 16.7831 34.2222 15.5604 34.2222ZM14.0409 25.8349C13.0174 27.7251 12.5352 29.363 12.6044 30.7276C12.6702 32.0259 13.5043 32.6048 14.1926 32.862C15.5568 33.372 17.2297 33.0032 17.8137 32.3327C18.0347 32.0792 18.0697 31.8233 17.9269 31.5023C17.61 30.7883 16.7327 29.5805 15.7174 28.1818C15.1967 27.4648 14.6227 26.674 14.0409 25.8349ZM11.6549 19.6563C12.2834 21.0519 13.1127 22.4599 13.9817 23.7917C14.3466 23.2228 14.7524 22.6353 15.1996 22.028C15.4739 21.6555 15.7239 21.3017 15.9502 20.9652C15.2062 20.8276 14.4307 20.6336 13.6234 20.3746C12.9332 20.1521 12.2768 19.9123 11.6549 19.6563ZM17.7794 20.0771C20.7969 20.3095 23.5313 19.5547 25.9411 17.8151C27.5707 16.6383 28.6565 15.2675 29.2311 14.4265C27.5808 14.3243 26.0175 14.0906 24.4975 13.8632C22.6908 13.593 20.8473 13.3172 18.8149 13.254C18.8451 13.4851 18.8907 13.72 18.9393 13.9697C19.2017 15.3331 19.5168 16.9643 17.7794 20.0771ZM11.0703 18.1832C11.9683 18.5991 12.9256 18.9703 13.9403 19.2963C14.8496 19.5881 15.7381 19.8019 16.6041 19.9389C18.4079 16.919 18.1312 15.4843 17.8819 14.1928C17.8221 13.883 17.7616 13.57 17.7273 13.241C16.6343 13.2502 15.4828 13.3271 14.2512 13.5018C12.7443 13.7163 11.6727 14.3007 11.152 15.1919C10.7 15.9665 10.6686 16.9934 11.0625 18.161C11.0649 18.1683 11.0672 18.1758 11.0703 18.1832ZM1.11662 2.34131C1.07101 3.64644 1.15631 5.96668 2.02413 8.51309C3.35519 12.4192 5.95925 15.4416 9.7901 17.5375C9.59935 16.4344 9.74806 15.4335 10.232 14.6037C10.9268 13.4132 12.2668 12.6454 14.1061 12.3845C15.3975 12.2011 16.6006 12.1211 17.7391 12.1118C17.7788 11.8255 17.8511 11.5225 17.9666 11.1977C17.4886 11.37 16.985 11.4382 16.5165 11.3706C15.6534 11.2454 15.0746 10.6803 14.9278 9.81944C14.7601 8.83478 15.1203 8.24164 15.4514 7.91754C16.1717 7.21293 17.4809 7.08836 18.6768 7.15653C18.569 6.97929 18.444 6.82312 18.3102 6.70352C17.7824 6.23129 16.9732 6.07698 16.1462 6.29017C15.0889 6.56223 14.384 7.2278 13.9462 7.70437C13.3988 8.2999 12.9859 8.73561 12.5665 9.16074C12.1276 9.60571 11.4618 9.71413 10.9103 9.43157C6.58716 7.21045 2.74445 3.85653 1.11662 2.34131ZM18.0856 8.2677C17.2664 8.2677 16.5425 8.39409 16.1871 8.74175C16.0592 8.8676 15.8987 9.09502 15.9887 9.62243C16.029 9.85724 16.1421 10.1783 16.664 10.2545C17.4038 10.3617 18.5607 9.84923 18.9422 9.02806C19.0388 8.81984 19.0714 8.57446 19.0548 8.31849C18.7284 8.28629 18.3996 8.2677 18.0856 8.2677Z" fill="#002334"/>
</g>
<defs>
<clipPath id="clip0_1_18816">
<rect width="100" height="35" fill="white" transform="translate(0.0234375)"/>
</clipPath>
</defs>
</svg>
