<svg width="149" height="52" viewBox="0 0 149 52" fill="none" xmlns="http://www.w3.org/2000/svg">
<g clip-path="url(#clip0_1_18815)">
<g clip-path="url(#clip1_1_18815)">
<path d="M55.9576 21.4505H52.2188V19.0906H62.3497V21.4505H58.6097V34.0243H55.9564V21.4505H55.9576Z" fill="#002334"/>
<path d="M73.0334 28.5416C73.0334 31.9463 70.7978 34.3481 67.2468 34.3481C63.7163 34.3481 61.5645 31.8829 61.5645 28.5416C61.5645 25.0951 63.8409 22.6729 67.2888 22.6729C70.7571 22.6718 73.0334 25.0951 73.0334 28.5416ZM64.177 28.5201C64.177 30.7759 65.326 32.2179 67.248 32.2179C69.1905 32.2179 70.3393 30.7759 70.3393 28.5201C70.3393 26.3481 69.1701 24.802 67.248 24.802C65.326 24.8031 64.177 26.3492 64.177 28.5201Z" fill="#002334"/>
<path d="M77.5231 23.7397C77.5231 23.9694 77.5231 24.1788 77.5016 24.429C78.0653 23.4476 79.152 22.6949 80.8024 22.6949C82.369 22.6949 83.4341 23.3639 84.0816 24.5535C84.7506 23.6141 85.8361 22.6949 87.7785 22.6949C90.3063 22.6949 91.7269 24.3033 91.7269 27.2066V34.0157H89.1788V28.1675C89.1788 25.9117 88.5732 24.8251 87.0689 24.8251C85.4818 24.8251 84.6873 26.0158 84.6873 27.6661V34.0157H82.1393V28.1053C82.1393 25.871 81.5336 24.8262 80.0089 24.8262C78.337 24.8262 77.6476 26.1414 77.6476 27.897V34.0169H75.0996V24.7436C75.0996 24.1584 75.0996 23.6366 75.0781 23.0515H77.522L77.5231 23.7397Z" fill="#002334"/>
<path d="M105.174 28.5416C105.174 31.9463 102.938 34.3481 99.3875 34.3481C95.8569 34.3481 93.7051 31.8829 93.7051 28.5416C93.7051 25.0951 95.9814 22.6729 99.4293 22.6729C102.898 22.6718 105.174 25.0951 105.174 28.5416ZM96.3175 28.5201C96.3175 30.7759 97.4665 32.2179 99.3886 32.2179C101.331 32.2179 102.48 30.7759 102.48 28.5201C102.48 26.3481 101.311 24.802 99.3886 24.802C97.4665 24.802 96.3175 26.3492 96.3175 28.5201Z" fill="#002334"/>
<path d="M109.643 23.0264V23.779C109.643 24.0292 109.643 24.2805 109.622 24.5103C110.019 23.4033 111.021 22.7762 112.275 22.7762C112.547 22.7762 112.735 22.7978 112.88 22.8182V25.2414C112.693 25.1781 112.401 25.1577 112.15 25.1577C110.144 25.1577 109.81 26.5782 109.81 28.8339V34.0132H107.262V25.0116C107.262 24.3224 107.262 23.6953 107.24 23.0264H109.643Z" fill="#002334"/>
<path d="M116.799 23.0264V23.779C116.799 24.0292 116.799 24.2805 116.778 24.5103C117.175 23.4033 118.178 22.7762 119.43 22.7762C119.702 22.7762 119.891 22.7978 120.036 22.8182V25.2414C119.849 25.1781 119.556 25.1577 119.305 25.1577C117.3 25.1577 116.966 26.5782 116.966 28.8339V34.0132H114.418V25.0116C114.418 24.3224 114.418 23.6953 114.396 23.0264H116.799Z" fill="#002334"/>
<path d="M132.354 28.5416C132.354 31.9463 130.12 34.3481 126.567 34.3481C123.039 34.3481 120.887 31.8829 120.887 28.5416C120.887 25.0951 123.163 22.6729 126.61 22.6729C130.077 22.6718 132.354 25.0951 132.354 28.5416ZM123.497 28.5201C123.497 30.7759 124.646 32.2179 126.567 32.2179C128.51 32.2179 129.659 30.7759 129.659 28.5201C129.659 26.3481 128.49 24.802 126.567 24.802C124.647 24.8031 123.497 26.3492 123.497 28.5201Z" fill="#002334"/>
<path d="M136.425 34.0337C135.191 30.4627 134.105 26.6404 132.936 23.0682H135.546L136.778 27.3501C137.176 28.6449 137.322 29.5855 137.76 31.152H137.801C138.199 29.6477 138.387 28.6665 138.826 26.8916L139.766 23.0694H142.188L143.274 27.3512C143.61 28.6665 143.756 29.5029 144.214 31.195H144.256C144.695 29.6907 144.842 28.8339 145.343 27.1011L146.492 23.0694H148.978L145.468 34.0348H142.815C142.209 32.1548 141.415 28.8973 140.977 26.7876H140.915C140.351 29.0637 139.64 32.0722 139.014 34.0348L136.425 34.0337Z" fill="#002334"/>
<path d="M58.6182 44.2338V50.7499H55.9648V35.8162H58.6182V41.8942H64.9888V35.8162H67.6421V50.7499H64.9888V44.2338H58.6182Z" fill="#002334"/>
<path d="M71.9046 45.8791C72.0721 47.6753 73.2832 48.9702 75.0582 48.9702C76.3113 48.9702 77.0844 48.4473 77.5655 47.612H80.1339C79.4649 49.6176 77.6481 51.0788 74.996 51.0788C71.5695 51.0788 69.3555 48.6555 69.3555 45.2306C69.3555 41.8882 71.6115 39.4026 74.9529 39.4026C78.4416 39.4026 80.3218 42.0138 80.3218 45.209C80.3218 45.6063 80.3002 45.8349 80.3002 45.8984L71.9046 45.8791ZM77.7749 44.0614C77.6073 42.5583 76.5841 41.3879 74.9337 41.3879C73.3467 41.3879 72.2181 42.307 71.9884 44.0614H77.7749Z" fill="#002334"/>
<path d="M82.0437 43.2053C82.149 41.0956 83.8819 39.4249 86.7436 39.4249C89.4172 39.4249 91.2758 40.5319 91.2758 44.2704V47.3411C91.2758 48.8657 91.3596 49.9309 91.526 50.7457H89.1863C89.1229 50.4334 89.0606 49.9309 89.0606 49.2834C88.4551 50.1809 87.2019 50.9551 85.4259 50.9551C83.1496 50.9551 81.5195 49.7644 81.5195 47.6965C81.5195 45.4204 83.9634 44.5432 86.2828 44.2082C87.2224 44.0622 88.0792 43.9784 88.8104 43.9161C88.7471 42.078 88.121 41.4102 86.6801 41.4102C85.238 41.4102 84.612 42.1414 84.466 43.2065L82.0437 43.2053ZM88.8535 45.6908L88.2898 45.7543C85.5108 46.0259 84.2374 46.4855 84.2374 47.6342C84.2374 48.6371 84.9686 49.1373 86.1379 49.1373C87.9762 49.1373 88.8331 48.01 88.8331 46.1505C88.8331 46.1289 88.8331 45.9206 88.8535 45.6908Z" fill="#002334"/>
<path d="M93.9043 35.8162H96.4523V50.7499H93.9043V35.8162Z" fill="#002334"/>
<path d="M102.26 39.7596H104.308V41.66H102.26V47.6543C102.26 48.6786 102.741 49.0125 103.576 49.0125C103.785 49.0125 103.952 48.9911 104.098 48.9707V50.8507C103.868 50.9141 103.597 50.9345 103.117 50.9345C101.049 50.9345 99.7118 50.2656 99.7118 48.0935V41.66H98.0625V39.7596H99.7118V36.7942H102.26V39.7596Z" fill="#002334"/>
<path d="M108.622 38.845C108.622 39.66 108.601 40.1818 108.58 41.017C109.27 40.0979 110.293 39.4302 111.902 39.4302C114.429 39.4302 115.87 41.1845 115.87 43.8795V50.751H113.343V45.1109C113.343 42.9389 112.841 41.5603 111.108 41.5603C109.374 41.5603 108.622 42.8552 108.622 44.6933V50.7499H106.074V35.8162H108.622V38.845Z" fill="#002334"/>
<path d="M23.1665 49.9504C22.284 49.9504 21.3947 49.8119 20.5882 49.5178C18.4899 48.7537 17.2723 47.138 17.1593 44.9674C17.0297 42.4804 17.9235 39.6257 19.8779 36.3152C18.0594 33.6537 16.2981 30.736 15.2014 27.8751C6.79331 23.8452 3.09003 17.821 1.46472 13.1257C-0.619422 7.10881 0.159706 2.04583 0.194118 1.83364L0.44118 0.298828L1.54237 1.37598C1.61384 1.44612 8.8201 8.44672 16.9467 12.5144C17.1619 12.6213 17.4196 12.5827 17.589 12.4155C18.1996 11.8121 18.8023 11.1917 19.6043 10.343C20.3949 9.50498 21.6752 8.33342 23.6553 7.83711C25.3874 7.40283 27.1265 7.75528 28.3053 8.78209C28.8903 9.291 29.3835 10.0463 29.6801 10.8824C30.6719 11.0335 31.4209 11.216 31.6327 11.2691L33.7848 11.8139L31.7889 12.7994C31.7686 12.8093 29.4842 13.9898 28.3071 16.9794C28.18 17.3031 28.0927 17.6043 28.0371 17.8912C31.1483 17.9837 33.9542 18.3929 36.7054 18.7938C39.476 19.1976 42.0923 19.5788 44.9855 19.658L46.2897 19.6939L45.6712 20.8636C45.5926 21.0129 43.6902 24.5545 39.6023 27.4507C36.596 29.5807 31.9142 31.6576 25.5214 30.9725C25.0529 31.6855 24.5164 32.4462 23.9005 33.259C23.1127 34.3002 22.4147 35.3018 21.8067 36.2639C22.7994 37.6782 23.7912 39.0098 24.6788 40.2003C26.3121 42.3914 27.6021 44.1223 28.1465 45.3172C28.6283 46.3728 28.4686 47.4652 27.7088 48.314C26.7726 49.3587 24.9877 49.9504 23.1665 49.9504ZM20.9032 37.7816C19.3785 40.5239 18.6603 42.9003 18.7634 44.8802C18.8613 46.7639 20.1038 47.6037 21.1291 47.9768C23.1612 48.7168 25.653 48.1818 26.5229 47.2089C26.8521 46.8412 26.9041 46.4699 26.6915 46.0041C26.2194 44.9683 24.9126 43.2159 23.4003 41.1865C22.6247 40.1463 21.7697 38.9991 20.9032 37.7816ZM17.349 28.8173C18.2852 30.8421 19.5205 32.8849 20.8149 34.8172C21.3585 33.9918 21.9629 33.1394 22.6291 32.2583C23.0376 31.7179 23.41 31.2046 23.7471 30.7163C22.6388 30.5167 21.4837 30.2352 20.2812 29.8594C19.2531 29.5366 18.2755 29.1887 17.349 28.8173ZM26.4718 29.4278C30.9665 29.765 35.0395 28.6698 38.629 26.146C41.0564 24.4386 42.6738 22.4497 43.5296 21.2296C41.0714 21.0813 38.7428 20.7423 36.4786 20.4123C33.7875 20.0203 31.0416 19.6202 28.0142 19.5284C28.0592 19.8638 28.1271 20.2046 28.1995 20.5669C28.5903 22.545 29.0598 24.9116 26.4718 29.4278ZM16.4782 26.6801C17.8158 27.2834 19.2417 27.822 20.7532 28.295C22.1077 28.7184 23.4312 29.0286 24.7211 29.2273C27.408 24.8459 26.9959 22.7644 26.6245 20.8906C26.5353 20.4411 26.4453 19.987 26.3942 19.5096C24.7662 19.523 23.0508 19.6345 21.2164 19.8881C18.9717 20.1992 17.3755 21.0471 16.5999 22.3401C15.9266 23.4639 15.8799 24.9538 16.4667 26.6478C16.4702 26.6585 16.4737 26.6693 16.4782 26.6801ZM1.65178 3.69573C1.58384 5.58929 1.7109 8.95562 3.00357 12.6501C4.98623 18.3173 8.8651 22.7024 14.5713 25.7432C14.2872 24.1427 14.5087 22.6907 15.2296 21.4867C16.2646 19.7595 18.2605 18.6455 21.0002 18.2669C22.9237 18.0008 24.7158 17.8848 26.4118 17.8713C26.4709 17.4559 26.5786 17.0163 26.7506 16.5452C26.0386 16.7951 25.2885 16.894 24.5906 16.796C23.3049 16.6143 22.4429 15.7944 22.2241 14.5454C21.9744 13.1168 22.5109 12.2563 23.0041 11.7861C24.077 10.7638 26.0271 10.583 27.8086 10.6819C27.648 10.4248 27.4618 10.1982 27.2624 10.0247C26.4762 9.33954 25.2709 9.11566 24.0391 9.42496C22.4641 9.81968 21.4141 10.7853 20.762 11.4768C19.9467 12.3408 19.3317 12.973 18.707 13.5898C18.0532 14.2353 17.0614 14.3926 16.2399 13.9827C9.8004 10.7602 4.07652 5.8941 1.65178 3.69573ZM26.9279 12.2941C25.7076 12.2941 24.6294 12.4775 24.1 12.9819C23.9094 13.1644 23.6703 13.4944 23.8044 14.2596C23.8644 14.6003 24.0329 15.0661 24.8103 15.1767C25.9123 15.3322 27.6356 14.5887 28.2039 13.3972C28.3477 13.0952 28.3963 12.7391 28.3715 12.3678C27.8853 12.321 27.3957 12.2941 26.9279 12.2941Z" fill="#002334"/>
</g>
</g>
<defs>
<clipPath id="clip0_1_18815">
<rect width="149" height="50.78" fill="white" transform="translate(0 0.298828)"/>
</clipPath>
<clipPath id="clip1_1_18815">
<rect width="148.955" height="50.78" fill="white" transform="translate(0.0234375 0.298828)"/>
</clipPath>
</defs>
</svg>
