<svg width="36" height="37" viewBox="0 0 36 37" fill="none" xmlns="http://www.w3.org/2000/svg">
<rect y="0.348633" width="36" height="36" rx="18" fill="white"/>
<path fill-rule="evenodd" clip-rule="evenodd" d="M21.3333 10.8486H14.6667C12.3655 10.8486 10.5 12.7141 10.5 15.0153V21.682C10.5 23.9831 12.3655 25.8486 14.6667 25.8486H21.3333C23.6345 25.8486 25.5 23.9831 25.5 21.682V15.0153C25.5 12.7141 23.6345 10.8486 21.3333 10.8486ZM24.0417 21.682C24.0371 23.1758 22.8272 24.3857 21.3333 24.3903H14.6667C13.1728 24.3857 11.9629 23.1758 11.9583 21.682V15.0153C11.9629 13.5214 13.1728 12.3115 14.6667 12.307H21.3333C22.8272 12.3115 24.0371 13.5214 24.0417 15.0153V21.682ZM21.9583 15.2236C22.4186 15.2236 22.7917 14.8505 22.7917 14.3903C22.7917 13.9301 22.4186 13.557 21.9583 13.557C21.4981 13.557 21.125 13.9301 21.125 14.3903C21.125 14.8505 21.4981 15.2236 21.9583 15.2236ZM18 14.5986C15.9289 14.5986 14.25 16.2776 14.25 18.3486C14.25 20.4197 15.9289 22.0986 18 22.0986C20.0711 22.0986 21.75 20.4197 21.75 18.3486C21.7522 17.3534 21.3578 16.3983 20.6541 15.6945C19.9503 14.9908 18.9952 14.5964 18 14.5986ZM15.7083 18.3486C15.7083 19.6143 16.7343 20.6403 18 20.6403C19.2657 20.6403 20.2917 19.6143 20.2917 18.3486C20.2917 17.083 19.2657 16.057 18 16.057C16.7343 16.057 15.7083 17.083 15.7083 18.3486Z" fill="#002538"/>
</svg>
