<svg width="36" height="37" viewBox="0 0 36 37" fill="none" xmlns="http://www.w3.org/2000/svg">
<rect y="0.348633" width="36" height="36" rx="18" fill="white"/>
<path fill-rule="evenodd" clip-rule="evenodd" d="M12.1667 10.8486H23.8333C24.7538 10.8486 25.5 11.5948 25.5 12.5153V24.182C25.5 25.1025 24.7538 25.8486 23.8333 25.8486H12.1667C11.2462 25.8486 10.5 25.1025 10.5 24.182V12.5153C10.5 11.5948 11.2462 10.8486 12.1667 10.8486ZM14.6667 23.3486C14.8968 23.3486 15.0833 23.162 15.0833 22.932V17.0986C15.0833 16.8685 14.8968 16.682 14.6667 16.682H13.4167C13.1865 16.682 13 16.8685 13 17.0986V22.932C13 23.162 13.1865 23.3486 13.4167 23.3486H14.6667ZM14.0417 15.8486C13.3513 15.8486 12.7917 15.289 12.7917 14.5986C12.7917 13.9083 13.3513 13.3486 14.0417 13.3486C14.732 13.3486 15.2917 13.9083 15.2917 14.5986C15.2917 15.289 14.732 15.8486 14.0417 15.8486ZM22.5833 23.3486C22.8134 23.3486 23 23.162 23 22.932V19.0986C23.0271 17.7743 22.048 16.6441 20.7333 16.482C19.8142 16.398 18.9236 16.8273 18.4167 17.5986V17.0986C18.4167 16.8685 18.2301 16.682 18 16.682H16.75C16.5199 16.682 16.3333 16.8685 16.3333 17.0986V22.932C16.3333 23.162 16.5199 23.3486 16.75 23.3486H18C18.2301 23.3486 18.4167 23.162 18.4167 22.932V19.807C18.4167 19.1166 18.9763 18.557 19.6667 18.557C20.357 18.557 20.9167 19.1166 20.9167 19.807V22.932C20.9167 23.162 21.1032 23.3486 21.3333 23.3486H22.5833Z" fill="#002538"/>
</svg>
