<svg width="47" height="50" viewBox="0 0 47 50" fill="none" xmlns="http://www.w3.org/2000/svg">
<path d="M23.1665 49.9504C22.284 49.9504 21.3947 49.8119 20.5882 49.5178C18.4899 48.7537 17.2723 47.138 17.1593 44.9674C17.0297 42.4804 17.9235 39.6257 19.8779 36.3152C18.0594 33.6537 16.2981 30.736 15.2014 27.8751C6.79331 23.8452 3.09003 17.821 1.46472 13.1257C-0.619422 7.10881 0.159706 2.04583 0.194118 1.83364L0.44118 0.298828L1.54237 1.37598C1.61384 1.44612 8.8201 8.44672 16.9467 12.5144C17.1619 12.6213 17.4196 12.5827 17.589 12.4155C18.1996 11.8121 18.8023 11.1917 19.6043 10.343C20.3949 9.50498 21.6752 8.33342 23.6553 7.83711C25.3874 7.40283 27.1265 7.75528 28.3053 8.78209C28.8903 9.291 29.3835 10.0463 29.6801 10.8824C30.6719 11.0335 31.4209 11.216 31.6327 11.2691L33.7848 11.8139L31.7889 12.7994C31.7686 12.8093 29.4842 13.9898 28.3071 16.9794C28.18 17.3031 28.0927 17.6043 28.0371 17.8912C31.1483 17.9837 33.9542 18.3929 36.7054 18.7938C39.476 19.1976 42.0923 19.5788 44.9855 19.658L46.2897 19.6939L45.6712 20.8636C45.5926 21.0129 43.6902 24.5545 39.6023 27.4507C36.596 29.5807 31.9142 31.6576 25.5214 30.9725C25.0529 31.6855 24.5164 32.4462 23.9005 33.259C23.1127 34.3002 22.4147 35.3018 21.8067 36.2639C22.7994 37.6782 23.7912 39.0098 24.6788 40.2003C26.3121 42.3914 27.6021 44.1223 28.1465 45.3172C28.6283 46.3728 28.4686 47.4652 27.7088 48.314C26.7726 49.3587 24.9877 49.9504 23.1665 49.9504ZM20.9032 37.7816C19.3785 40.5239 18.6603 42.9003 18.7634 44.8802C18.8613 46.7639 20.1038 47.6037 21.1291 47.9768C23.1612 48.7168 25.653 48.1818 26.5229 47.2089C26.8521 46.8412 26.9041 46.4699 26.6915 46.0041C26.2194 44.9683 24.9126 43.2159 23.4003 41.1865C22.6247 40.1463 21.7697 38.9991 20.9032 37.7816ZM17.349 28.8173C18.2852 30.8421 19.5205 32.8849 20.8149 34.8172C21.3585 33.9918 21.9629 33.1394 22.6291 32.2583C23.0376 31.7179 23.41 31.2046 23.7471 30.7163C22.6388 30.5167 21.4837 30.2352 20.2812 29.8594C19.2531 29.5366 18.2755 29.1887 17.349 28.8173ZM26.4718 29.4278C30.9665 29.765 35.0395 28.6698 38.629 26.146C41.0564 24.4386 42.6738 22.4497 43.5296 21.2296C41.0714 21.0813 38.7428 20.7423 36.4786 20.4123C33.7875 20.0203 31.0416 19.6202 28.0142 19.5284C28.0592 19.8638 28.1271 20.2046 28.1995 20.5669C28.5903 22.545 29.0598 24.9116 26.4718 29.4278ZM16.4782 26.6801C17.8158 27.2834 19.2417 27.822 20.7532 28.295C22.1077 28.7184 23.4312 29.0286 24.7211 29.2273C27.408 24.8459 26.9959 22.7644 26.6245 20.8906C26.5353 20.4411 26.4453 19.987 26.3942 19.5096C24.7662 19.523 23.0508 19.6345 21.2164 19.8881C18.9717 20.1992 17.3755 21.0471 16.5999 22.3401C15.9266 23.4639 15.8799 24.9538 16.4667 26.6478C16.4702 26.6585 16.4737 26.6693 16.4782 26.6801ZM1.65178 3.69573C1.58384 5.58929 1.7109 8.95562 3.00357 12.6501C4.98623 18.3173 8.8651 22.7024 14.5713 25.7432C14.2872 24.1427 14.5087 22.6907 15.2296 21.4867C16.2646 19.7595 18.2605 18.6455 21.0002 18.2669C22.9237 18.0008 24.7158 17.8848 26.4118 17.8713C26.4709 17.4559 26.5786 17.0163 26.7506 16.5452C26.0386 16.7951 25.2885 16.894 24.5906 16.796C23.3049 16.6143 22.4429 15.7944 22.2241 14.5454C21.9744 13.1168 22.5109 12.2563 23.0041 11.7861C24.077 10.7638 26.0271 10.583 27.8086 10.6819C27.648 10.4248 27.4618 10.1982 27.2624 10.0247C26.4762 9.33954 25.2709 9.11566 24.0391 9.42496C22.4641 9.81968 21.4141 10.7853 20.762 11.4768C19.9467 12.3408 19.3317 12.973 18.707 13.5898C18.0532 14.2353 17.0614 14.3926 16.2399 13.9827C9.8004 10.7602 4.07652 5.8941 1.65178 3.69573ZM26.9279 12.2941C25.7076 12.2941 24.6294 12.4775 24.1 12.9819C23.9094 13.1644 23.6703 13.4944 23.8044 14.2596C23.8644 14.6003 24.0329 15.0661 24.8103 15.1767C25.9123 15.3322 27.6356 14.5887 28.2039 13.3972C28.3477 13.0952 28.3963 12.7391 28.3715 12.3678C27.8853 12.321 27.3957 12.2941 26.9279 12.2941Z" fill="#002334"/>
</svg>
