<svg width="61" height="65" viewBox="0 0 61 65" fill="none" xmlns="http://www.w3.org/2000/svg">
<path d="M30.1486 64.153C28.9994 64.153 27.8412 63.9764 26.7909 63.6013C24.0583 62.6264 22.4727 60.5655 22.3256 57.7968C22.1567 54.6245 23.3207 50.9832 25.8658 46.7602C23.4976 43.3654 21.2041 39.6437 19.7757 35.9943C8.82606 30.8538 4.00335 23.1696 1.88672 17.1805C-0.827418 9.50547 0.187226 3.04727 0.23204 2.77661L0.553785 0.818848L1.98785 2.19283C2.08092 2.28229 11.4655 11.2121 22.0487 16.4006C22.329 16.5372 22.6645 16.4879 22.8852 16.2745C23.6803 15.5049 24.4651 14.7135 25.5096 13.6309C26.5392 12.562 28.2066 11.0675 30.7851 10.4345C33.0407 9.88051 35.3056 10.3301 36.8408 11.6399C37.6027 12.289 38.245 13.2524 38.631 14.319C39.9227 14.5117 40.8983 14.7445 41.174 14.8121L43.9766 15.5072L41.3774 16.7642C41.3509 16.7768 38.376 18.2827 36.8431 22.0961C36.6777 22.5091 36.5638 22.8933 36.4915 23.2591C40.5432 23.3773 44.1972 23.8991 47.7801 24.4106C51.3883 24.9255 54.7953 25.4118 58.5632 25.5128L60.2615 25.5586L59.456 27.0508C59.3537 27.2411 56.8763 31.7587 51.5526 35.4529C47.6376 38.17 41.5405 40.8193 33.2155 39.9454C32.6053 40.8548 31.9066 41.8251 31.1046 42.8619C30.0785 44.19 29.1695 45.4677 28.3778 46.6949C29.6705 48.4989 30.962 50.1975 32.1181 51.716C34.245 54.5109 35.925 56.7188 36.6339 58.243C37.2613 59.5894 37.0534 60.983 36.064 62.0657C34.8449 63.3983 32.5202 64.153 30.1486 64.153ZM27.2011 48.6309C25.2155 52.1289 24.2801 55.1601 24.4146 57.6856C24.5421 60.0884 26.1601 61.1595 27.4953 61.6356C30.1417 62.5795 33.3867 61.8971 34.5197 60.6561C34.9482 60.187 35.0161 59.7133 34.7391 59.1192C34.1243 57.798 32.4226 55.5627 30.4531 52.9741C29.443 51.6472 28.3296 50.1838 27.2011 48.6309ZM22.5726 37.1963C23.7917 39.7791 25.4005 42.3848 27.0862 44.8495C27.794 43.7966 28.5812 42.7093 29.4487 41.5855C29.9807 40.8962 30.4657 40.2412 30.9046 39.6184C29.4614 39.3638 27.9572 39.0049 26.391 38.5254C25.0524 38.1138 23.7792 37.6699 22.5726 37.1963ZM34.4531 37.975C40.3064 38.4051 45.6106 37.0082 50.2851 33.7887C53.4463 31.6108 55.5526 29.0739 56.6672 27.5176C53.4658 27.3283 50.4333 26.8959 47.4847 26.475C43.98 25.9749 40.4042 25.4645 36.4616 25.3476C36.5202 25.7754 36.6086 26.21 36.703 26.6723C37.2119 29.1954 37.8233 32.2141 34.4531 37.975ZM21.4385 34.4701C23.1805 35.2396 25.0374 35.9266 27.0057 36.5299C28.7696 37.0701 30.4932 37.4657 32.1732 37.7192C35.6722 32.1304 35.1356 29.4753 34.6518 27.0851C34.5357 26.5117 34.4185 25.9325 34.3518 25.3235C32.2318 25.3407 29.998 25.4829 27.609 25.8063C24.6857 26.2033 22.607 27.2847 21.597 28.934C20.7203 30.3676 20.6594 32.2681 21.4235 34.4287C21.4281 34.4425 21.4327 34.4563 21.4385 34.4701ZM2.13034 5.15184C2.04185 7.56721 2.20732 11.8612 3.89073 16.5739C6.47273 23.8027 11.5241 29.3962 18.9553 33.275C18.5853 31.2335 18.8736 29.3812 19.8125 27.8456C21.1604 25.6424 23.7596 24.2214 27.3275 23.7386C29.8326 23.399 32.1663 23.2511 34.3749 23.2339C34.4519 22.704 34.5921 22.1431 34.8161 21.5422C33.8887 21.861 32.9121 21.9872 32.0031 21.8622C30.3289 21.6305 29.2062 20.5846 28.9213 18.9915C28.596 17.1691 29.2947 16.0714 29.9371 15.4716C31.3343 14.1676 33.8739 13.9371 36.1939 14.0633C35.9847 13.7353 35.7423 13.4462 35.4826 13.2249C34.4588 12.3509 32.8891 12.0654 31.2849 12.4599C29.2339 12.9634 27.8665 14.1952 27.0173 15.0771C25.9555 16.1793 25.1545 16.9855 24.3411 17.7724C23.4895 18.5958 22.198 18.7966 21.1282 18.2735C12.7422 14.163 5.28802 7.95601 2.13034 5.15184ZM35.0471 16.1197C33.4578 16.1197 32.0537 16.3536 31.3643 16.997C31.1161 17.2299 30.8046 17.6507 30.9794 18.6268C31.0574 19.0615 31.277 19.6555 32.2893 19.7966C33.7244 19.9951 35.9686 19.0465 36.7087 17.5269C36.896 17.1415 36.9591 16.6873 36.927 16.2137C36.2938 16.154 35.6561 16.1197 35.0471 16.1197Z" fill="white"/>
</svg>
