<svg width="36" height="37" viewBox="0 0 36 37" fill="none" xmlns="http://www.w3.org/2000/svg">
<rect y="0.348633" width="36" height="36" rx="18" fill="white"/>
<path d="M25.478 13.9465C25.091 14.4627 24.6232 14.9131 24.0926 15.2801C24.0926 15.415 24.0926 15.5498 24.0926 15.6922C24.0969 18.1412 23.1186 20.4896 21.3772 22.2107C19.6357 23.9319 17.2767 24.8819 14.8291 24.8477C13.414 24.8525 12.0171 24.5294 10.7477 23.9037C10.6793 23.8738 10.6351 23.8061 10.6354 23.7314V23.649C10.6354 23.5414 10.7226 23.4542 10.8301 23.4542C12.2211 23.4083 13.5624 22.9261 14.6643 22.0756C13.4053 22.0502 12.2725 21.3044 11.7512 20.1576C11.7249 20.095 11.7331 20.0231 11.7729 19.968C11.8126 19.9129 11.8782 19.8826 11.9459 19.8879C12.3286 19.9263 12.715 19.8907 13.0842 19.783C11.6944 19.4945 10.6501 18.3406 10.5006 16.9284C10.4953 16.8606 10.5256 16.7951 10.5807 16.7552C10.6358 16.7155 10.7076 16.7072 10.7702 16.7336C11.1432 16.8982 11.5458 16.9849 11.9534 16.9883C10.7356 16.189 10.2096 14.6687 10.6728 13.2872C10.7207 13.1529 10.8356 13.0537 10.9753 13.0261C11.115 12.9984 11.259 13.0464 11.3543 13.1523C12.9977 14.9013 15.2557 15.9436 17.6523 16.0593C17.591 15.8143 17.5608 15.5626 17.5625 15.3101C17.5849 13.9859 18.4042 12.8063 19.6369 12.3235C20.8695 11.8408 22.2715 12.1503 23.1865 13.1073C23.8102 12.9885 24.4132 12.779 24.9763 12.4855C25.0175 12.4597 25.0699 12.4597 25.1111 12.4855C25.1369 12.5267 25.1369 12.5791 25.1111 12.6203C24.8384 13.2449 24.3776 13.7687 23.7931 14.1188C24.305 14.0594 24.8078 13.9387 25.2909 13.7592C25.3315 13.7315 25.385 13.7315 25.4256 13.7592C25.4597 13.7748 25.4852 13.8046 25.4953 13.8407C25.5054 13.8767 25.499 13.9155 25.478 13.9465Z" fill="#002538"/>
</svg>
